<svg xmlns="http://www.w3.org/2000/svg" viewBox="0 0 48 48" fill="none"><path d="M11 20 9 8l9 5a17 17 0 0 1 12 0l9-5-2 12a15 15 0 1 1-26 0z" fill="#E9E0D1" stroke="#43302A" stroke-width="2" stroke-linejoin="round"/>
<path d="M20 17a4 4 0 1 1 5 4" stroke="#8D6E63" stroke-width="2" stroke-linecap="round" fill="none"/>
<circle cx="18" cy="26" r="2.2" fill="#43302A"/><circle cx="30" cy="26" r="2.2" fill="#43302A"/>
<path d="M24 31l-2.2 2h4.4z" fill="#9E4A3C"/>
<path d="M24 33v2M24 35c-1.5 0-2.5-1-2.5-1M24 35c1.5 0 2.5-1 2.5-1" stroke="#43302A" stroke-width="1.6" stroke-linecap="round"/>
<path d="M7 28h7M7 32h7M34 28h7M34 32h7" stroke="#43302A" stroke-width="1.4" stroke-linecap="round" opacity=".6"/></svg>
